O leão Alex (Ben Stiller), a zebra Marty (Chris Rock), a girafa Melman (David Schwimmer) e a hipopótamo Gloria (Jada Pinkett Smith) viajam com um circo, numa nova tentativa de voltarem para casa em Nova York

Ficha Técnica
Produção: Mireille Soria, Mark Swift
Roteiro: Noah Baumbach
Trilha Sonora: Hans Zimmer
Ano: 2012
País: EUA
Gênero: Animação
Cor: Colorido
Distribuidora: Paramount Pictures Brasil


General
Complete name                  : E:VideosDesenhosmadagascar.3.2012.os.procurados.dublado.1080p.bluray.x264-kacetov.mp4
Format                         : MPEG-4
Format profile                 : Base Media
Codec ID                       : isom
File size                      : 1.04 GiB
Duration                       : 1h 33mn
Overall bit rate mode          : Variable
Overall bit rate               : 1 598 Kbps
Encoded date                   : UTC 2012-11-21 16:03:32
Tagged date                    : UTC 2012-11-21 16:03:32

Video
ID                             : 1
Format                         : AVC
Format/Info                    : Advanced Video Codec
Format profile                 : High@L5.0
Format settings, CABAC         : Yes
Format settings, ReFrames      : 12 frames
Codec ID                       : avc1
Codec ID/Info                  : Advanced Video Coding
Duration                       : 1h 33mn
Bit rate                       : 1 500 Kbps
Maximum bit rate               : 19.4 Mbps
Width                          : 1 920 pixels
Height                         : 1 080 pixels
Display aspect ratio           : 16:9
Frame rate mode                : Constant
Frame rate                     : 23.976 fps
Color space                    : YUV
Chroma subsampling             : 4:2:0
Bit depth                      : 8 bits
Scan type                      : Progressive
Bits/(Pixel*Frame)             : 0.030
Stream size                    : 1 002 MiB (94%)
Writing library                : x264 core 125 r2200 999b753
Encoding settings              : cabac=1 / ref=12 / deblock=1:1:1 / analyse=0x3:0x133 / me=umh / subme=7 / psy=1 / psy_rd=0.60:0.00 / mixed_ref=1 / me_range=16 / chroma_me=1 / trellis=2 / 8x8dct=1 / cqm=0 / deadzone=21,11 / fast_pskip=1 / chroma_qp_offset=-2 / threads=12 / lookahead_threads=2 / sliced_threads=0 / nr=0 / decimate=1 / interlaced=0 / bluray_compat=0 / constrained_intra=0 / bframes=16 / b_pyramid=2 / b_adapt=1 / b_bias=0 / direct=3 / weightb=0 / open_gop=0 / weightp=2 / keyint=240 / keyint_min=23 / scenecut=40 / intra_refresh=0 / rc_lookahead=40 / rc=2pass / mbtree=1 / bitrate=1500 / ratetol=1.0 / qcomp=0.60 / qpmin=10 / qpmax=51 / qpstep=4 / cplxblur=20.0 / qblur=0.5 / ip_ratio=1.40 / aq=1:0.00
Encoded date                   : UTC 2012-11-21 02:53:26
Tagged date                    : UTC 2012-11-21 16:03:58

Audio
ID                             : 2
Format                         : AAC
Format/Info                    : Advanced Audio Codec
Format profile                 : LC
Codec ID                       : 40
Duration                       : 1h 33mn
Bit rate mode                  : Variable
Bit rate                       : 96.0 Kbps
Maximum bit rate               : 119 Kbps
Channel(s)                     : 2 channels
Channel positions              : Front: L R
Sampling rate                  : 44.1 KHz
Compression mode               : Lossy
Delay relative to video        : 83ms
Stream size                    : 64.0 MiB (6%)
Encoded date                   : UTC 2012-11-21 16:03:50
Tagged date                    : UTC 2012-11-21 16:03:58

